<svg xmlns="http://www.w3.org/2000/svg" xmlns:xlink="http://www.w3.org/1999/xlink" width="20" height="9" viewBox="0 0 20 9"><defs><clipPath id="a"><rect width="20" height="9" transform="translate(0 0)"/></clipPath></defs><g transform="translate(0 0)" clip-path="url(#a)"><g transform="translate(0 0)" clip-path="url(#a)"><g transform="translate(0 0)" clip-path="url(#a)"><path d="M236.452,409.72a3.092,3.092,0,0,0-4.356-.015,5.436,5.436,0,0,1-7.78-.057c-.006-.006-.009-.012-.015-.018a3.092,3.092,0,1,0-.015,4.389,5.436,5.436,0,0,1,7.78.057c.006.006.009.012.015.018a3.092,3.092,0,1,0,4.371-4.374" transform="translate(-218.239 -407.393)" fill="#72bf44"/></g></g></g></svg>