<svg width="20" height="32" viewBox="0 0 20 32" fill="none" xmlns="http://www.w3.org/2000/svg">
<path d="M17.0588 0H2.94118C2.16232 0.003894 1.41646 0.317313 0.865722 0.872134C0.31498 1.42696 0.00386537 2.17834 0 2.96296V29.037C0.00386537 29.8217 0.31498 30.573 0.865722 31.1279C1.41646 31.6827 2.16232 31.9961 2.94118 32H17.0588C17.8377 31.9961 18.5835 31.6827 19.1343 31.1279C19.685 30.573 19.9961 29.8217 20 29.037V2.96296C19.9961 2.17834 19.685 1.42696 19.1343 0.872134C18.5835 0.317313 17.8377 0.003894 17.0588 0ZM18.8235 29.037C18.8235 29.5085 18.6376 29.9607 18.3067 30.2941C17.9757 30.6275 17.5269 30.8148 17.0588 30.8148H2.94118C2.47315 30.8148 2.02429 30.6275 1.69334 30.2941C1.36239 29.9607 1.17647 29.5085 1.17647 29.037V2.96296C1.17647 2.49147 1.36239 2.03928 1.69334 1.70588C2.02429 1.37249 2.47315 1.18519 2.94118 1.18519H17.0588C17.5269 1.18519 17.9757 1.37249 18.3067 1.70588C18.6376 2.03928 18.8235 2.49147 18.8235 2.96296V29.037ZM15.2941 5.33333C15.2941 5.4905 15.2321 5.64123 15.1218 5.75236C15.0115 5.86349 14.8619 5.92593 14.7059 5.92593H5.29412C5.13811 5.92593 4.98849 5.86349 4.87817 5.75236C4.76786 5.64123 4.70588 5.4905 4.70588 5.33333C4.70588 5.17617 4.76786 5.02544 4.87817 4.91431C4.98849 4.80317 5.13811 4.74074 5.29412 4.74074H14.7059C14.8619 4.74074 15.0115 4.80317 15.1218 4.91431C15.2321 5.02544 15.2941 5.17617 15.2941 5.33333Z" fill="white"/>
</svg>
