<svg width="23" height="30" viewBox="0 0 23 30" fill="none" xmlns="http://www.w3.org/2000/svg">
<path fill-rule="evenodd" clip-rule="evenodd" d="M11.5 29.07L12.6043 27.8257C13.8573 26.3907 14.9843 25.0292 15.987 23.7342L16.8147 22.6422C20.271 17.9855 22 14.2895 22 11.5577C22 5.72675 17.2995 1 11.5 1C5.7005 1 1 5.72675 1 11.5577C1 14.2895 2.729 17.9855 6.18525 22.6422L7.013 23.7342C8.44352 25.5672 9.94017 27.3458 11.5 29.07Z" stroke="white" stroke-linecap="round" stroke-linejoin="round"/>
<path d="M11.5 15.875C13.9162 15.875 15.875 13.9163 15.875 11.5C15.875 9.08377 13.9162 7.12502 11.5 7.12502C9.08375 7.12502 7.125 9.08377 7.125 11.5C7.125 13.9163 9.08375 15.875 11.5 15.875Z" stroke="white" stroke-linecap="round" stroke-linejoin="round"/>
</svg>
