<svg width="26" height="21" viewBox="0 0 26 21" fill="none" xmlns="http://www.w3.org/2000/svg">
<path d="M4.10526 0H21.8947C22.9835 0 24.0277 0.442499 24.7976 1.23015C25.5675 2.0178 26 3.08609 26 4.2V16.8C26 17.9139 25.5675 18.9822 24.7976 19.7698C24.0277 20.5575 22.9835 21 21.8947 21H4.10526C3.01648 21 1.97229 20.5575 1.2024 19.7698C0.432518 18.9822 0 17.9139 0 16.8V4.2C0 3.08609 0.432518 2.0178 1.2024 1.23015C1.97229 0.442499 3.01648 0 4.10526 0ZM4.10526 1.4C3.42105 1.4 2.81895 1.638 2.35368 2.058L13 9.1L23.6463 2.058C23.1811 1.638 22.5789 1.4 21.8947 1.4H4.10526ZM13 10.794L1.54632 3.192C1.43684 3.5 1.36842 3.85 1.36842 4.2V16.8C1.36842 17.5426 1.65677 18.2548 2.17002 18.7799C2.68328 19.305 3.37941 19.6 4.10526 19.6H21.8947C22.6206 19.6 23.3167 19.305 23.83 18.7799C24.3432 18.2548 24.6316 17.5426 24.6316 16.8V4.2C24.6316 3.85 24.5632 3.5 24.4537 3.192L13 10.794Z" fill="white"/>
</svg>
