<svg xmlns="http://www.w3.org/2000/svg" width="31.835" height="31.895" viewBox="0 0 31.835 31.895"><path d="M3.169,25.38v4.5a3,3,0,0,0,3.27,3,29.685,29.685,0,0,0,12.945-4.6,29.25,29.25,0,0,0,9-9,29.685,29.685,0,0,0,4.605-13A3,3,0,0,0,30,3H25.5a3,3,0,0,0-3,2.58,19.259,19.259,0,0,1-1.05,4.215,3,3,0,0,0,.675,3.165l1.905,1.9a24,24,0,0,1-9,9l-1.9-1.9a3,3,0,0,0-3.165-.675,19.26,19.26,0,0,1-4.215,1.05,3,3,0,0,0-2.58,3.045Z" transform="translate(-2.167 -2)" fill="none" stroke="#fff" stroke-linecap="round" stroke-linejoin="round" stroke-width="2"/></svg>