<svg width="27" height="36" viewBox="0 0 27 36" fill="none" xmlns="http://www.w3.org/2000/svg">
<path fill-rule="evenodd" clip-rule="evenodd" d="M13.5 34.4167L14.8146 32.9354C16.3062 31.2271 17.6479 29.6062 18.8417 28.0646L19.8271 26.7646C23.9417 21.2208 26 16.8208 26 13.5687C26 6.62708 20.4042 1 13.5 1C6.59583 1 1 6.62708 1 13.5687C1 16.8208 3.05833 21.2208 7.17292 26.7646L8.15833 28.0646C9.86133 30.2466 11.6431 32.364 13.5 34.4167Z" stroke="#92A1A6" stroke-width="1.5" stroke-linecap="round" stroke-linejoin="round"/>
<path d="M13.5003 18.7083C16.3768 18.7083 18.7087 16.3764 18.7087 13.5C18.7087 10.6235 16.3768 8.29163 13.5003 8.29163C10.6238 8.29163 8.29199 10.6235 8.29199 13.5C8.29199 16.3764 10.6238 18.7083 13.5003 18.7083Z" stroke="#92A1A6" stroke-width="1.5" stroke-linecap="round" stroke-linejoin="round"/>
</svg>
