<svg width="27" height="32" viewBox="0 0 27 32" fill="none" xmlns="http://www.w3.org/2000/svg">
<path d="M13.5001 3.36865C16.2154 3.36865 18.7653 4.4028 20.679 6.28248C22.5792 8.14699 23.6255 10.6263 23.6255 13.2555C23.6255 15.8847 22.5792 18.3589 20.6807 20.2268L13.5001 27.2739L6.32127 20.2234C4.42277 18.3589 3.37649 15.8847 3.37649 13.2521C3.37649 10.6195 4.42277 8.14531 6.32127 6.27743C8.23733 4.40252 10.8169 3.35733 13.5001 3.36865ZM13.5001 5.33009e-05C9.93015 -0.0097555 6.50013 1.38514 3.95363 3.88236C2.7021 5.10312 1.70765 6.56122 1.0287 8.17099C0.349749 9.78076 0 11.5097 0 13.2563C0 15.0029 0.349749 16.7319 1.0287 18.3416C1.70765 19.9514 2.7021 21.4095 3.95363 22.6303L13.5001 32L23.0466 22.6269C24.2981 21.4064 25.2925 19.9486 25.9714 18.3391C26.6503 16.7296 27 15.0009 27 13.2546C27 11.5083 26.6503 9.77962 25.9714 8.17013C25.2925 6.56064 24.2981 5.10283 23.0466 3.88236C20.5002 1.38498 17.0702 -0.00993763 13.5001 5.33009e-05ZM13.5001 9.262C14.6274 9.262 15.6872 9.69991 16.4837 10.4932C17.2749 11.2834 17.7193 12.3548 17.7193 13.4719C17.7193 14.589 17.2749 15.6604 16.4837 16.4506C15.6855 17.2456 14.6274 17.6818 13.5001 17.6818C12.3728 17.6818 11.3148 17.2439 10.5165 16.4506C9.72541 15.6604 9.28101 14.589 9.28101 13.4719C9.28101 12.3548 9.72541 11.2834 10.5165 10.4932C10.908 10.1018 11.3731 9.7915 11.8851 9.5802C12.3972 9.3689 12.946 9.26075 13.5001 9.262ZM13.5001 7.5777C12.5282 7.5771 11.5712 7.81582 10.7138 8.2727C9.85645 8.72958 9.12526 9.3905 8.58505 10.1969C8.04484 11.0033 7.7123 11.9302 7.61689 12.8956C7.52149 13.8609 7.66617 14.8349 8.03811 15.7311C8.41006 16.6272 8.99778 17.418 9.74918 18.0333C10.5006 18.6485 11.3925 19.0693 12.3458 19.2582C13.2991 19.4471 14.2843 19.3984 15.2143 19.1164C16.1442 18.8344 16.99 18.3277 17.6768 17.6414C18.7839 16.5351 19.4058 15.0355 19.4058 13.4719C19.4058 11.9083 18.7839 10.4087 17.6768 9.30242C17.1288 8.75451 16.4777 8.32009 15.7609 8.0241C15.0441 7.72812 14.2758 7.57641 13.5001 7.5777Z" fill="#92A1A6"/>
</svg>
